<svg viewBox="0 0 108 108" xmlns="http://www.w3.org/2000/svg">
    <path d="m79.991 39.53-1.036 9.985c-.122 1.095-1.462 1.567-2.235.797l-2.444-2.45-15.409 15.419c-.967.967-2.67.967-3.635 0l-8.491-8.493-14.339 14.355a2.567 2.569 0 1 1-3.626-3.636l16.155-16.164c.965-.967 2.666-.967 3.626 0l8.493 8.494 13.6-13.605-2.868-2.867c-.78-.78-.306-2.125.788-2.236l9.976-1.037a1.31 1.31 0 0 1 1.447 1.439z" fill="#fff" style="stroke:none;stroke-width:1.73334;stroke-miterlimit:4;stroke-dasharray:none"/>
</svg>
