<svg xmlns="http://www.w3.org/2000/svg" viewBox="0 0 108 108">
    <path style="fill:#ff525d;stroke-width:.167347" d="M53.487 28.005c-12.358.265-22.473 10.27-22.864 22.626a23.306 23.306 0 0 0 5.673 16.042c1.664 1.925 2.139 4.608 1.283 7.004l-1.539 4.308c-.5 1.402 1.123 2.6 2.314 1.708l5.457-4.081a7.154 7.154 0 0 1 5.675-1.274c2.072.408 4.24.543 6.472.358 11.737-.97 20.994-10.678 21.415-22.448.484-13.48-10.447-24.53-23.886-24.243z"/>
    <path style="fill:#fff;stroke-width:.167347" d="M58.014 50.477c-2.373 1.856-2.417 3.151-2.417 5.396 0 .82-.432 1.77-2.547 1.77-1.77 0-2.373-.648-2.373-2.893 0-3.712 1.64-5.481 2.891-6.56 1.425-1.209 3.842-2.547 3.842-4.878 0-1.985-1.726-2.935-3.885-2.935-4.402 0-3.453 3.323-5.784 3.323-1.165 0-2.59-.776-2.59-2.46 0-2.33 2.677-5.784 8.504-5.784 5.525 0 9.194 3.065 9.194 7.122s-3.67 6.993-4.835 7.9zm-1.597 13.467c0 1.77-1.467 3.324-3.323 3.324-1.856 0-3.28-1.554-3.28-3.324 0-1.812 1.467-3.323 3.28-3.323 1.812 0 3.323 1.51 3.323 3.323z"/>
</svg>
