<svg viewBox="0 0 48 48" xmlns="http://www.w3.org/2000/svg">
    <rect width="48" height="48" fill="green" ry="11"/>
    <path d="m38.995 15.652-.598 5.76c-.07.632-.843.904-1.289.46l-1.41-1.413-8.89 8.895c-.558.558-1.54.558-2.097 0l-4.899-4.9-8.272 8.282a1.481 1.482 0 1 1-2.092-2.098l9.32-9.325c.557-.558 1.538-.558 2.092 0l4.9 4.9 7.846-7.849-1.655-1.654c-.45-.45-.176-1.226.455-1.29l5.755-.598a.756.756 0 0 1 .835.83z" fill="#fff" style="stroke:none;stroke-width:1;stroke-miterlimit:4;stroke-dasharray:none"/>
</svg>
