<svg viewBox="0 0 48 48" xmlns="http://www.w3.org/2000/svg">
    <path style="fill:#fff;stroke-width:.135161;fill-opacity:1" d="M23.588 3.004C13.606 3.218 5.436 11.3 5.12 21.28a18.824 18.824 0 0 0 4.582 12.956 5.714 5.714 0 0 1 1.037 5.657l-1.244 3.48c-.404 1.131.908 2.1 1.87 1.38l4.407-3.297a5.778 5.778 0 0 1 4.585-1.03 18.923 18.923 0 0 0 5.227.29c9.479-.784 16.955-8.623 17.294-18.129.391-10.888-8.436-19.814-19.29-19.582zm.134 6.018c4.463 0 7.426 2.475 7.426 5.751 0 3.276-2.96 5.646-3.903 6.38l-.002.003c-1.916 1.498-1.95 2.544-1.95 4.356 0 .662-.352 1.429-2.058 1.429-1.43 0-1.919-.523-1.919-2.336 0-2.998 1.325-4.428 2.336-5.3 1.15-.975 3.103-2.055 3.103-3.937 0-1.604-1.393-2.37-3.138-2.37-3.555 0-2.788 2.682-4.67 2.682-.942 0-2.092-.626-2.092-1.987 0-1.882 2.161-4.67 6.867-4.67zm-.453 20.325a2.709 2.709 0 0 1 2.684 2.684h.002c0 1.43-1.188 2.684-2.686 2.684-1.5 0-2.65-1.255-2.65-2.684 0-1.464 1.186-2.684 2.65-2.684z"/>
</svg>
