<svg xmlns="http://www.w3.org/2000/svg" viewBox="0 0 162 162">
    <path style="fill:#ff525d;stroke-width:.45698" d="M79.602 10.015C45.855 10.739 18.234 38.06 17.166 71.8a63.643 63.643 0 0 0 15.492 43.806c4.543 5.257 5.84 12.583 3.503 19.126l-4.203 11.764c-1.365 3.829 3.067 7.1 6.32 4.664l14.901-11.144a19.536 19.536 0 0 1 15.497-3.479 63.935 63.935 0 0 0 17.673.978c32.05-2.65 57.33-29.16 58.479-61.3C146.15 39.405 116.3 9.23 79.602 10.014z"/>
    <path style="fill:#fff;stroke-width:.45698" d="M91.964 71.38c-6.48 5.068-6.6 8.605-6.6 14.735 0 2.24-1.18 4.833-6.956 4.833-4.833 0-6.48-1.769-6.48-7.9 0-10.136 4.479-14.967 7.895-17.913 3.891-3.302 10.491-6.955 10.491-13.32 0-5.421-4.713-8.015-10.609-8.015-12.02 0-9.429 9.074-15.794 9.074-3.182 0-7.073-2.12-7.073-6.718 0-6.362 7.31-15.794 23.222-15.794 15.088 0 25.107 8.37 25.107 19.448 0 11.079-10.022 19.096-13.203 21.573zm-4.361 36.775c0 4.833-4.006 9.077-9.075 9.077-5.068 0-8.956-4.244-8.956-9.077 0-4.948 4.006-9.074 8.956-9.074 4.949 0 9.075 4.123 9.075 9.074z"/>
</svg>
