<svg viewBox="0 0 48 48" xmlns="http://www.w3.org/2000/svg">
    <path style="fill:#ff525d;stroke-width:.148038" d="M23.547 1.005c-10.932.234-19.88 9.085-20.226 20.014a20.617 20.617 0 0 0 5.018 14.19 6.259 6.259 0 0 1 1.135 6.198l-1.36 3.81c-.443 1.24.992 2.3 2.046 1.512l4.828-3.611a6.329 6.329 0 0 1 5.021-1.127 20.726 20.726 0 0 0 5.725.317c10.382-.859 18.57-9.446 18.943-19.857.428-11.925-9.241-21.7-21.13-21.446z"/>
    <path style="fill:#fff;stroke-width:.148038" d="M27.553 20.883c-2.1 1.642-2.139 2.788-2.139 4.774 0 .724-.383 1.565-2.253 1.565-1.566 0-2.1-.573-2.1-2.56 0-3.283 1.451-4.848 2.558-5.803 1.26-1.068 3.399-2.253 3.399-4.314 0-1.757-1.527-2.596-3.437-2.596-3.895 0-3.054 2.939-5.117 2.939-1.03 0-2.29-.686-2.29-2.176 0-2.061 2.367-5.116 7.522-5.116 4.887 0 8.133 2.711 8.133 6.3 0 3.59-3.246 6.186-4.277 6.988zM26.14 32.797c0 1.565-1.3 2.94-2.94 2.94-1.642 0-2.903-1.375-2.903-2.94 0-1.603 1.3-2.94 2.903-2.94a2.967 2.967 0 0 1 2.939 2.939z"/>
</svg>
