<svg xmlns="http://www.w3.org/2000/svg" viewBox="0 0 48 48">
    <path fill="#fff" d="M0 0h48v48H0z"/>
    <path style="fill:#ff525d;stroke-width:.115856" d="M23.645 6.004c-8.556.183-15.558 7.11-15.829 15.663a16.135 16.135 0 0 0 3.927 11.106 4.898 4.898 0 0 1 .888 4.85l-1.065 2.982c-.346.97.777 1.8 1.602 1.183l3.778-2.826a4.953 4.953 0 0 1 3.93-.882 16.22 16.22 0 0 0 4.48.248c8.125-.672 14.534-7.392 14.825-15.54.335-9.333-7.232-16.983-16.536-16.784z"/>
    <path style="fill:#fff;stroke-width:.115856" d="M26.78 21.561c-1.644 1.285-1.674 2.182-1.674 3.736 0 .567-.3 1.225-1.763 1.225-1.226 0-1.644-.449-1.644-2.003 0-2.57 1.136-3.795 2.002-4.542.986-.836 2.66-1.763 2.66-3.376 0-1.375-1.195-2.032-2.69-2.032-3.048 0-2.39 2.3-4.004 2.3-.807 0-1.793-.537-1.793-1.703 0-1.613 1.853-4.004 5.887-4.004 3.825 0 6.365 2.122 6.365 4.93 0 2.81-2.54 4.842-3.347 5.47zm-1.106 9.324c0 1.225-1.017 2.3-2.301 2.3-1.285 0-2.272-1.075-2.272-2.3 0-1.255 1.017-2.301 2.272-2.301a2.322 2.322 0 0 1 2.3 2.3z"/>
</svg>
